<svg width="115" height="46" viewBox="0 0 115 46" fill="none" xmlns="http://www.w3.org/2000/svg">
<g clip-path="url(#clip0_95_369)">
<path d="M20.724 43.8261C19.7648 43.8261 19.0375 43.5808 18.5378 43.0855C18.0381 42.5903 17.7883 41.8898 17.7883 40.9797V6.30423H4.12247C3.33277 6.30423 2.70815 6.09454 2.24861 5.67961C1.78906 5.26468 1.56152 4.68021 1.56152 3.93067C1.56152 3.18112 1.78906 2.60558 2.24861 2.21296C2.70815 1.82034 3.32831 1.61957 4.12247 1.61957H37.2676C38.0974 1.61957 38.7354 1.81588 39.1727 2.21296C39.6099 2.61004 39.8285 3.18112 39.8285 3.93067C39.8285 4.68021 39.6099 5.26468 39.1727 5.67961C38.7354 6.09454 38.1019 6.30423 37.2676 6.30423H23.5973V40.9841C23.5973 41.8943 23.3564 42.5947 22.879 43.09C22.4016 43.5852 21.6833 43.8306 20.724 43.8306V43.8261Z" fill="black" stroke="black" stroke-width="3.73181" stroke-miterlimit="10"/>
<path d="M54.4402 43.9466C51.906 43.9466 49.7868 43.5093 48.0914 42.6438C46.3915 41.7738 45.1378 40.4889 44.3213 38.789C43.5049 37.0891 43.0989 34.9565 43.0989 32.3866V16.8558C43.0989 15.9457 43.3443 15.2675 43.8395 14.8124C44.3347 14.3574 45.0531 14.1298 45.9989 14.1298C46.9448 14.1298 47.6765 14.3574 48.1895 14.8124C48.7071 15.2675 48.9614 15.9501 48.9614 16.8558V32.3866C48.9614 34.836 49.4968 36.6474 50.572 37.8119C51.6473 38.9764 53.3427 39.5608 55.6627 39.5608C58.2415 39.5608 60.334 38.7711 61.9491 37.1917C63.5597 35.6123 64.3672 33.5154 64.3672 30.9098V16.8603C64.3672 15.9501 64.6126 15.272 65.1079 14.8169C65.6031 14.3618 66.3214 14.1343 67.2673 14.1343C68.2131 14.1343 68.9448 14.3618 69.4579 14.8169C69.9754 15.272 70.2298 15.9546 70.2298 16.8603V41.0466C70.2298 42.9026 69.2839 43.8306 67.3922 43.8306C66.4463 43.8306 65.728 43.5941 65.2328 43.1212C64.7376 42.6483 64.4922 41.9567 64.4922 41.0466V35.889L65.3309 36.8973C64.4699 39.1905 63.0868 40.9395 61.1727 42.1441C59.2587 43.3487 57.0146 43.951 54.4358 43.951L54.4402 43.9466Z" fill="black" stroke="black" stroke-width="3.73181" stroke-miterlimit="10"/>
<path d="M94.0144 43.9466C91.4802 43.9466 89.361 43.5316 87.6656 42.7018C85.9657 41.8719 84.6986 40.6673 83.8643 39.0879C83.0255 37.5085 82.6062 35.5722 82.6062 33.2789V18.694H78.4792C77.7073 18.694 77.105 18.5066 76.6723 18.1318C76.2439 17.7571 76.0298 17.2529 76.0298 16.6194C76.0298 15.9457 76.2439 15.4326 76.6723 15.0801C77.1006 14.7232 77.7029 14.5447 78.4792 14.5447H82.6062V8.08436C82.6062 7.1742 82.8649 6.49604 83.378 6.04096C83.8956 5.58588 84.6228 5.35834 85.5686 5.35834C86.5145 5.35834 87.2328 5.58588 87.7281 6.04096C88.2233 6.49604 88.4687 7.17866 88.4687 8.08436V14.5447H96.2675C97.084 14.5447 97.7086 14.7232 98.1369 15.0801C98.5652 15.4371 98.7794 15.9501 98.7794 16.6194C98.7794 17.2529 98.5652 17.7571 98.1369 18.1318C97.7086 18.5066 97.084 18.694 96.2675 18.694H88.4687V32.8015C88.4687 34.9743 88.9639 36.6162 89.9499 37.7227C90.9359 38.8291 92.5689 39.3824 94.8487 39.3824C95.6652 39.3824 96.3523 39.3154 96.91 39.1727C97.4677 39.0344 97.9629 38.9674 98.3912 38.9674C98.7794 38.9273 99.1096 39.0477 99.3906 39.3244C99.6717 39.601 99.81 40.1141 99.81 40.8636C99.81 41.4168 99.7119 41.921 99.52 42.3761C99.3282 42.8312 98.9489 43.139 98.3912 43.2952C97.8737 43.4513 97.1866 43.603 96.33 43.7413C95.4689 43.8796 94.697 43.951 94.01 43.951L94.0144 43.9466Z" fill="black" stroke="black" stroke-width="3.73181" stroke-miterlimit="10"/>
<path d="M109.358 7.84344C108.198 7.84344 107.283 7.5579 106.619 6.98235C105.954 6.41127 105.619 5.64834 105.619 4.69802C105.619 3.67186 105.949 2.89108 106.619 2.35569C107.283 1.8203 108.198 1.55707 109.358 1.55707C110.603 1.55707 111.54 1.82476 112.16 2.35569C112.78 2.89108 113.092 3.67186 113.092 4.69802C113.092 5.64834 112.78 6.40681 112.16 6.98235C111.535 7.5579 110.603 7.84344 109.358 7.84344ZM109.358 43.7101C108.457 43.7101 107.747 43.4513 107.23 42.9382C106.712 42.4252 106.458 41.7158 106.458 40.8056V17.1548C106.458 16.2044 106.717 15.4861 107.23 14.9909C107.747 14.4957 108.452 14.2503 109.358 14.2503C110.264 14.2503 111.036 14.4957 111.549 14.9909C112.066 15.4861 112.32 16.2044 112.32 17.1548V40.8056C112.32 41.7158 112.071 42.4252 111.58 42.9382C111.085 43.4513 110.344 43.7101 109.358 43.7101Z" fill="black" stroke="black" stroke-width="3.73181" stroke-miterlimit="10"/>
</g>
<defs>
<clipPath id="clip0_95_369">
<rect width="114.654" height="45.5081" fill="white"/>
</clipPath>
</defs>
</svg>
