<svg width="1024" height="1024" viewBox="0 0 1024 1024" fill="none" xmlns="http://www.w3.org/2000/svg">
<path d="M724.186 0H299.814C134.231 0 0 134.231 0 299.814V724.186C0 889.769 134.231 1024 299.814 1024H724.186C889.769 1024 1024 889.769 1024 724.186V299.814C1024 134.231 889.769 0 724.186 0Z" fill="#8CBDEF"/>
<mask id="mask0_3_2" style="mask-type:luminance" maskUnits="userSpaceOnUse" x="0" y="0" width="1024" height="1024">
<path d="M724.186 0H299.814C134.231 0 0 134.231 0 299.814V724.186C0 889.769 134.231 1024 299.814 1024H724.186C889.769 1024 1024 889.769 1024 724.186V299.814C1024 134.231 889.769 0 724.186 0Z" fill="white"/>
</mask>
<g mask="url(#mask0_3_2)">
<path d="M717.657 735.057L1366.11 905.433V1470.69H-468.117V1361.68C-162.41 1128.48 143.28 895.28 448.986 662.079" fill="url(#paint0_linear_3_2)"/>
<path d="M448.987 662.079V296.435L664.396 244.007C691.508 237.413 717.641 257.947 717.641 285.858V735.057" fill="url(#paint1_linear_3_2)"/>
<path d="M261.374 251.874C260.036 415.656 258.697 579.421 257.359 743.202C258.175 746.875 260.934 756.929 270.188 764.193C281.043 772.73 296.533 774.035 310.326 767.865C356.552 732.609 402.777 697.335 449.003 662.078V296.435C407.902 271.429 366.786 246.423 325.685 221.4C301.985 212.537 278.529 217.173 267.854 231.537C265.618 234.556 261.668 241.053 261.374 251.858V251.874Z" fill="#EBF5D5"/>
<path d="M283.214 251.875L279.688 743.202C278.398 751.739 281.581 760.227 288.061 765.025C296.468 771.244 309.167 770.363 317.736 762.202C361.481 728.822 405.225 695.458 448.986 662.079V296.435L332.459 224.599C311.027 211.394 283.393 226.689 283.214 251.858V251.875Z" fill="#C7EA86"/>
</g>
<defs>
<linearGradient id="paint0_linear_3_2" x1="443.633" y1="1518.46" x2="488.406" y2="664.152" gradientUnits="userSpaceOnUse">
<stop offset="0.38" stop-color="#C7EA86"/>
<stop offset="1" stop-color="#EBF5D5"/>
</linearGradient>
<linearGradient id="paint1_linear_3_2" x1="583.322" y1="735.057" x2="583.322" y2="242.783" gradientUnits="userSpaceOnUse">
<stop stop-color="#F3F9E7"/>
<stop offset="1" stop-color="white"/>
</linearGradient>
</defs>
</svg>
